<svg xmlns="http://www.w3.org/2000/svg" xmlns:xlink="http://www.w3.org/1999/xlink" viewBox="0 0 225.45 263.59"><defs><style>.cls-1{fill:none;}.cls-2{fill:url(#New_Gradient_Swatch_copy);}.cls-3{clip-path:url(#clip-path);}.cls-4{fill:url(#New_Gradient_Swatch_copy-2);}.cls-5{fill:url(#New_Gradient_Swatch_copy-3);}.cls-6{fill:url(#New_Gradient_Swatch_copy-4);}.cls-7{fill:url(#New_Gradient_Swatch_copy-5);}.cls-8{fill:url(#New_Gradient_Swatch_copy-6);}.cls-9{fill:url(#New_Gradient_Swatch_copy-7);}.cls-10{fill:url(#New_Gradient_Swatch_copy-8);}</style><linearGradient id="New_Gradient_Swatch_copy" x1="73.37" y1="92.14" x2="114.03" y2="92.14" gradientUnits="userSpaceOnUse"><stop offset="0" stop-color="#3030bf"/><stop offset="0.5" stop-color="#4040ff"/><stop offset="1" stop-color="#59aeff"/></linearGradient><clipPath id="clip-path" transform="translate(37)"><circle class="cls-1" cx="73.5" cy="113.25" r="73.5"/></clipPath><linearGradient id="New_Gradient_Swatch_copy-2" x1="-10.45" y1="193.39" x2="146.28" y2="89.18" xlink:href="#New_Gradient_Swatch_copy"/><linearGradient id="New_Gradient_Swatch_copy-3" x1="118.61" y1="245.99" x2="142.86" y2="229.87" xlink:href="#New_Gradient_Swatch_copy"/><linearGradient id="New_Gradient_Swatch_copy-4" x1="-56.48" y1="211.3" x2="1.19" y2="172.95" xlink:href="#New_Gradient_Swatch_copy"/><linearGradient id="New_Gradient_Swatch_copy-5" x1="121.41" y1="230.76" x2="136.63" y2="220.64" xlink:href="#New_Gradient_Swatch_copy"/><linearGradient id="New_Gradient_Swatch_copy-6" x1="116.08" y1="222.79" x2="126.65" y2="215.76" xlink:href="#New_Gradient_Swatch_copy"/><linearGradient id="New_Gradient_Swatch_copy-7" x1="250.15" y1="-41.46" x2="46.48" y2="161.87" xlink:href="#New_Gradient_Swatch_copy"/><linearGradient id="New_Gradient_Swatch_copy-8" x1="131.73" y1="230.82" x2="184.62" y2="230.82" xlink:href="#New_Gradient_Swatch_copy"/></defs><g id="Layer_2" data-name="Layer 2"><g id="Layer_1-2" data-name="Layer 1"><path class="cls-2" d="M114,109.8a3.87,3.87,0,1,1-7.74,0c0-7.2-1.53-13.25-4.56-18.09a26.1,26.1,0,0,0-9.89-9.18,35.67,35.67,0,0,0-14.68-4.19,3.88,3.88,0,0,1,.08-7.75h.08a43.7,43.7,0,0,1,18.24,5.14A36.33,36.33,0,0,1,101,79.4C107.8,84.9,114,94.2,114,109.8Z" transform="translate(37)"/><g class="cls-3"><path class="cls-4" d="M146.27,112.51q0,22.08-10.31,38.48a65.84,65.84,0,0,1-14.29,16.12L108.41,147.7l-.09-.12A49.44,49.44,0,0,0,75.89,63.39C43.18,61.76,17,92,25.67,125.78c3.91,15.24,19.86,31,35.13,34.75a51.11,51.11,0,0,0,23,.45,49.52,49.52,0,0,0,9.67-3.16.21.21,0,0,0,0,.06L106.6,177l20.07,29.4a15.45,15.45,0,0,0-4.36,2.79,15,15,0,0,0-1.87,20.07L115,240.6H20.94L-36,116.94a93,93,0,0,1,92-79.66A126.08,126.08,0,0,1,93.17,42.4a92,92,0,0,1,10.7,4q20.31,9.15,31.36,26.14T146.27,112.51Z" transform="translate(37)"/><path class="cls-5" d="M150,240.6l-3.62-5.3h-14a14.93,14.93,0,0,1-12-6L115,240.6Z" transform="translate(37)"/><path class="cls-6" d="M-37,130.22V240.6H20.94L-36,116.94A93.82,93.82,0,0,0-37,130.22Z" transform="translate(37)"/><path class="cls-7" d="M133.17,225.58a13.11,13.11,0,0,1-.63-10.55l-5.87-8.59a15.45,15.45,0,0,0-4.36,2.79l4.47,6.82-6.34,13.25a14.93,14.93,0,0,0,12,6h14L132.54,215A13.11,13.11,0,0,0,133.17,225.58Z" transform="translate(37)"/><path class="cls-8" d="M122.31,209.23a15,15,0,0,0-1.87,20.07l6.34-13.25Z" transform="translate(37)"/></g><path class="cls-9" d="M136.33,209.71l14.47-11.66A115,115,0,0,0,171,173.84a112.86,112.86,0,0,0,14.55-85.7A113.94,113.94,0,0,0,74.76,0h-15l30,31.39c32.19,6,59,30.86,66.54,63.49a83,83,0,0,1-10.75,63.06,85,85,0,0,1-17.72,20.33,82.13,82.13,0,0,1-11.12,7.78l-.07,0a7.49,7.49,0,0,0-2.56,10.58l12.7,19.38,5.88,8.4A12.9,12.9,0,0,1,136.33,209.71Z" transform="translate(37)"/><path class="cls-10" d="M136.33,209.71a12.9,12.9,0,0,0-3.67,14.74L160,263.59l24.58-17.2L150.8,198.05Z" transform="translate(37)"/></g></g></svg>